<svg width="308" height="78" viewBox="0 0 308 78" fill="none" xmlns="http://www.w3.org/2000/svg">
<path d="M291.507 9.26627V46.9303C291.507 50.5749 292.501 53.4149 294.489 55.4503C296.477 57.4383 299.294 58.4323 302.938 58.4323C304.642 58.4323 306.275 58.1483 307.837 57.5803L307.482 51.9713C306.441 52.4446 305.329 52.6813 304.145 52.6813C302.205 52.6813 300.737 52.1369 299.743 51.0483C298.797 49.9596 298.323 48.3976 298.323 46.3623V5.33105L291.507 9.26627Z" fill="#18064E"/>
<path d="M189.556 57.7933C191.024 57.3199 192.254 56.6573 193.248 55.8053L191.118 50.9063C189.651 52.0896 187.876 52.6813 185.793 52.6813C183.9 52.6813 182.433 52.1369 181.391 51.0483C180.397 49.9596 179.9 48.3976 179.9 46.3623V25.9853H190.692V20.3763H179.9V12.144L173.084 16.0793V46.6463C173.084 50.4329 174.126 53.3439 176.208 55.3793C178.291 57.4146 181.226 58.4323 185.012 58.4323C186.574 58.4323 188.089 58.2193 189.556 57.7933Z" fill="#18064E"/>
<path fill-rule="evenodd" clip-rule="evenodd" d="M117.911 26.0563L117.904 26.0467C116.39 24.0635 114.499 22.5757 112.231 21.5833C109.959 20.5419 107.474 20.0213 104.776 20.0213C101.131 20.0213 97.8651 20.8259 94.9778 22.4353C92.0905 24.0446 89.8185 26.2929 88.1618 29.1803C86.5525 32.0676 85.7478 35.4046 85.7478 39.1913C85.7478 42.9779 86.5525 46.3386 88.1618 49.2733C89.8185 52.1606 92.0905 54.4089 94.9778 56.0183C97.8651 57.6276 101.131 58.4323 104.776 58.4323C107.568 58.4323 110.124 57.8879 112.444 56.7993C114.763 55.7106 116.68 54.1249 118.195 52.0423V58.0063H124.727V22.1137L117.911 26.0489V26.0563ZM105.344 52.4683C107.71 52.4683 109.864 51.9239 111.805 50.8353C113.745 49.6993 115.26 48.1373 116.349 46.1493C117.437 44.1139 117.982 41.7946 117.982 39.1913C117.982 36.5879 117.437 34.2923 116.349 32.3043C115.26 30.2689 113.745 28.7069 111.805 27.6183C109.864 26.5296 107.71 25.9853 105.344 25.9853C102.93 25.9853 100.752 26.5296 98.8118 27.6183C96.9185 28.7069 95.4038 30.2689 94.2678 32.3043C93.1791 34.2923 92.6348 36.5879 92.6348 39.1913C92.6348 41.7946 93.1791 44.1139 94.2678 46.1493C95.4038 48.1373 96.9185 49.6993 98.8118 50.8353C100.752 51.9239 102.93 52.4683 105.344 52.4683Z" fill="#18064E"/>
<path d="M151.894 58.4323C148.06 58.4323 144.629 57.6039 141.599 55.9473C138.617 54.2906 136.274 52.0186 134.57 49.1313C132.866 46.1966 132.014 42.8833 132.014 39.1913C132.014 35.4993 132.866 32.2096 134.57 29.3223C136.274 26.3876 138.617 24.1156 141.599 22.5063C144.629 20.8496 148.06 20.0213 151.894 20.0213C155.302 20.0213 158.332 20.7076 160.982 22.0803C163.68 23.4529 165.763 25.4409 167.23 28.0443L162.047 31.3813C160.864 29.5826 159.397 28.2336 157.645 27.3343C155.894 26.4349 153.953 25.9853 151.823 25.9853C149.362 25.9853 147.137 26.5296 145.149 27.6183C143.209 28.7069 141.67 30.2689 140.534 32.3043C139.446 34.2923 138.901 36.5879 138.901 39.1913C138.901 41.8419 139.446 44.1849 140.534 46.2203C141.67 48.2083 143.209 49.7466 145.149 50.8353C147.137 51.9239 149.362 52.4683 151.823 52.4683C153.953 52.4683 155.894 52.0186 157.645 51.1193C159.397 50.2199 160.864 48.8709 162.047 47.0723L167.23 50.3383C165.763 52.9416 163.68 54.9533 160.982 56.3733C158.332 57.7459 155.302 58.4323 151.894 58.4323Z" fill="#18064E"/>
<path d="M234.395 20.3763V58.0063H227.934V52.3263C226.562 54.2669 224.739 55.7816 222.467 56.8703C220.243 57.9116 217.805 58.4323 215.154 58.4323C210.137 58.4323 206.185 57.0596 203.297 54.3143C200.41 51.5216 198.966 47.4273 198.966 42.0313V20.3763H205.782V41.2503C205.782 44.8949 206.658 47.6639 208.409 49.5573C210.161 51.4033 212.669 52.3263 215.935 52.3263C219.533 52.3263 222.373 51.2376 224.455 49.0603C226.538 46.8829 227.579 43.8063 227.579 39.8303V20.3763H234.395Z" fill="#18064E"/>
<path fill-rule="evenodd" clip-rule="evenodd" d="M280.741 58.0063V22.1289L273.926 26.0636L273.911 26.0381C272.399 24.0592 270.51 22.5742 268.245 21.5833C265.973 20.5419 263.488 20.0213 260.79 20.0213C257.145 20.0213 253.879 20.8259 250.992 22.4353C248.105 24.0446 245.833 26.2929 244.176 29.1803C242.567 32.0676 241.762 35.4046 241.762 39.1913C241.762 42.9779 242.567 46.3386 244.176 49.2733C245.833 52.1606 248.105 54.4089 250.992 56.0183C253.879 57.6276 257.145 58.4323 260.79 58.4323C263.583 58.4323 266.139 57.8879 268.458 56.7993C270.777 55.7106 272.694 54.1249 274.209 52.0423V58.0063H280.741ZM267.819 50.8353C265.878 51.9239 263.725 52.4683 261.358 52.4683C258.944 52.4683 256.767 51.9239 254.826 50.8353C252.933 49.6993 251.418 48.1373 250.282 46.1493C249.193 44.1139 248.649 41.7946 248.649 39.1913C248.649 36.5879 249.193 34.2923 250.282 32.3043C251.418 30.2689 252.933 28.7069 254.826 27.6183C256.767 26.5296 258.944 25.9853 261.358 25.9853C263.725 25.9853 265.878 26.5296 267.819 27.6183C269.76 28.7069 271.274 30.2689 272.363 32.3043C273.452 34.2923 273.996 36.5879 273.996 39.1913C273.996 41.7946 273.452 44.1139 272.363 46.1493C271.274 48.1373 269.76 49.6993 267.819 50.8353Z" fill="#18064E"/>
<path d="M7.52148 0.693514C3.30573 -1.74045 -1.5489 2.67276 0.473345 7.10076L24.8392 60.4533C26.0644 63.136 29.3333 64.1809 31.8873 62.7063L65.9091 43.0639C69.2424 41.1394 69.2424 36.3282 65.9091 34.4037L7.52148 0.693514Z" fill="url(#paint0_linear_1703_93)"/>
<path d="M7.52148 76.7766C3.30573 79.2105 -1.5489 74.7973 0.473345 70.3693L27.1241 12.0137L65.9091 34.4062C69.2424 36.3307 69.2424 41.1419 65.9091 43.0664L7.52148 76.7766Z" fill="url(#paint1_linear_1703_93)"/>
<defs>
<linearGradient id="paint0_linear_1703_93" x1="3" y1="1.17716e-07" x2="24" y2="24.5" gradientUnits="userSpaceOnUse">
<stop stop-color="#96DBE2"/>
<stop offset="1" stop-color="#08ADA8"/>
</linearGradient>
<linearGradient id="paint1_linear_1703_93" x1="49.5" y1="20.002" x2="1.5" y2="75.0019" gradientUnits="userSpaceOnUse">
<stop stop-color="#A0E3BE"/>
<stop offset="1" stop-color="#0AABC4"/>
</linearGradient>
</defs>
</svg>
